<?xml version="1.0" encoding="UTF-8" standalone="no"?>
<!-- Created with Inkscape (http://www.inkscape.org/) -->

<svg
   version="1.1"
   id="svg1"
   width="612.03723"
   height="585.00964"
   viewBox="0 0 612.03723 585.00964"
   sodipodi:docname="brand-tg.png"
   xmlns:inkscape="http://www.inkscape.org/namespaces/inkscape"
   xmlns:sodipodi="http://sodipodi.sourceforge.net/DTD/sodipodi-0.dtd"
   xmlns="http://www.w3.org/2000/svg"
   xmlns:svg="http://www.w3.org/2000/svg">
  <defs
     id="defs1" />
  <sodipodi:namedview
     id="namedview1"
     pagecolor="#ffffff"
     bordercolor="#000000"
     borderopacity="0.25"
     inkscape:showpageshadow="2"
     inkscape:pageopacity="0.0"
     inkscape:pagecheckerboard="0"
     inkscape:deskcolor="#d1d1d1"
     showguides="true">
    <inkscape:page
       x="0"
       y="0"
       width="612.03723"
       height="585.00964"
       id="page2"
       margin="0"
       bleed="0" />
  </sodipodi:namedview>
  <g
     inkscape:groupmode="layer"
     inkscape:label="Image"
     id="g1"
     transform="translate(-233.98138,-247.49516)">
    <path
       style="fill:#000000"
       d="m 712.21367,831.37981 c -24.94619,-9.26341 -49.98562,-36.3473 -70.37581,-53.5643 -31.2817,-26.4704 -57.21409,-47.99686 -57.62752,-47.8366 -0.41344,0.16027 -17.65422,15.90327 -38.31286,34.98444 -34.04075,31.44146 -38.05254,34.83898 -42.80398,36.25 -6.172,1.83289 -7.18978,1.87632 -12.08849,0.51579 -4.76107,-1.3223 -9.15293,-5.75097 -12.72844,-12.8351 -2.58995,-5.13146 -19.63676,-51.87836 -50.00381,-137.12373 l -11.57751,-32.5 -57.99079,-15.77658 c -33.5027,-9.11452 -60.27509,-16.92418 -63.4003,-18.49423 -17.79807,-8.94144 -24.19592,-28.12035 -14.05194,-42.12371 6.48163,-8.94763 -25.13056,4.29712 408.44398,-171.12827 75.8506,-30.68936 116.48772,-46.63571 121.47097,-47.66627 17.06052,-3.52819 30.16193,2.11784 33.90507,14.61134 1.83425,6.12215 1.47796,9.07677 -5.39011,44.7 -3.59235,18.63274 -11.22253,58.17772 -16.95595,87.87772 -5.73341,29.7 -17.40746,90.225 -25.94233,134.5 -39.80986,206.51545 -39.21759,203.58152 -42.20549,209.07129 -7.52124,13.81898 -24.60311,20.48736 -42.36469,16.53821 z m 19.46854,-15.40327 c 8.27032,-2.84009 10.7225,-7.1155 13.97316,-24.36234 2.80224,-14.8677 7.76561,-40.52249 28.98994,-149.84389 30.90656,-159.19224 56.56836,-293.73521 56.56836,-296.58379 0,-5.01668 -3.01221,-6.9238 -10.85779,-6.87436 -3.71988,0.0234 -9.06201,0.8589 -12.14221,1.89893 -5.36929,1.81296 -130.74249,52.43368 -360.5,145.55558 -62.7,25.41264 -121.05149,49.05615 -129.66997,52.54115 -17.8913,7.23458 -23.13699,10.22163 -25.30153,14.40738 -1.95601,3.78251 -1.9298,6.40716 0.10683,10.69904 3.51275,7.40258 5.78293,8.23838 69.15235,25.45957 32.29178,8.77557 59.51113,16.2012 60.48744,16.5014 1.07121,0.32938 1.66603,0.0756 1.5,-0.63983 -0.15131,-0.65211 5.34988,-4.67066 12.22488,-8.9301 6.875,-4.25945 40.85,-25.28754 75.5,-46.72908 34.65,-21.44155 96.975,-60.04008 138.5,-85.77452 41.525,-25.73444 77.3,-47.62185 79.5,-48.63867 5.06966,-2.34317 9.90239,-2.34736 15.04137,-0.013 10.84452,4.92598 14.71325,19.30428 7.65949,28.46683 -1.48547,1.92957 -40.97033,39.87848 -87.74413,84.33091 -46.77379,44.45243 -97.06129,92.2446 -111.75,106.20483 -14.6887,13.96023 -26.70673,25.69182 -26.70673,26.0702 0,0.37837 5.2875,5.17699 11.75,10.66358 15.03687,12.76615 159.06176,134.49585 165.92252,140.23756 2.84488,2.38085 6.89488,4.94303 9,5.69373 5.19968,1.85425 12.80514,1.71624 18.79602,-0.34107 z M 572.01332,719.83573 c 0.30621,-0.88221 -51.763,-45.4354 -52.37961,-44.81879 -0.36146,0.36146 -18.42004,107.95087 -18.42004,109.74293 0,1.07614 70.25173,-63.34555 70.79965,-64.92414 z m -74.39124,-5.30303 c 5.26518,-31.8329 9.95821,-57.41004 10.7262,-58.45805 1.53363,-2.0928 30.57423,-29.8398 149.36885,-142.71527 45.0981,-42.85101 82.41146,-78.93662 82.91857,-80.19025 1.03161,-2.55022 -0.62449,-5.39882 -3.13873,-5.39882 -1.07884,0 -188.81044,115.61098 -301.5333,185.69362 -2.0625,1.2823 -3.75,2.92017 -3.75,3.63969 0,1.25746 13.67357,39.87102 38.48031,108.66669 6.44547,17.875 12.87592,35.86979 14.28989,39.98842 1.41397,4.11863 2.72983,7.0115 2.92413,6.42861 0.1943,-0.5829 4.56563,-26.52749 9.71408,-57.65464 z m 203.88332,87.87323 c -623.36535,-739.88103 -623.36535,-739.88103 0,0 z"
       id="path3"
       sodipodi:nodetypes="sssssssscsssssssssssssssssssssssssssssssssssssssssssssssssssssss" />
  </g>
</svg>
